# xmcd
# 
# Track frame offsets:
#     150
#     19209
#     33815
#     64823
# 
# Disc length: 961
# 
# Revision: 0
# Processed by: cddbd v1.5.2PL0 Copyright (c) Steve Scherf et al.
# Submitted via: BonkEnc v1.0.8
# 
DISCID=2a03bf04
DTITLE=Qwai - サヨナラの空
DYEAR=0
DGENRE=
TTITLE0=サヨナラの空
TTITLE1=羽
TTITLE2=サクラ Live ver
TTITLE3=サヨナラの空(銀魂　TVサイズ)
EXTD=
EXTT0=
EXTT1=
EXTT2=
EXTT3=
PLAYORDER=
